<?xml version="1.0" encoding="UTF-8" standalone="no"?>
<!-- Created with Serif DrawPlus 12,0,4,27 (May 24, 08:37:51) (http://www.serif.com) -->
<svg version="1.1" xmlns="http://www.w3.org/2000/svg" xmlns:xlink="http://www.w3.org/1999/xlink" xmlns:i="http://ns.adobe.com/AdobeIllustrator/10.0/" width="506" height="445">
	<g id="Layer_1" i:layer="yes">
		<g id="dp_group001">
			<path id="dp_path002" fill="#5aa9f3" fill-rule="evenodd" d="M 30.1627,24.6893 L 475.843,24.6893 C 490.779,24.6893 502.988,36.9107 502.988,51.8413 L 502.988,391.804 C 502.988,406.735 490.779,418.949 475.843,418.949 L 30.1627,418.949 C 15.232,418.949 3.01067,406.735 3.01067,391.804 L 3.01067,51.8413 C 3.01067,36.9107 15.232,24.6893 30.1627,24.6893 Z "/>
			<path id="dp_path003" fill="#1485ee" fill-rule="evenodd" d="M 245.255,93.7227 C 211.129,94.8067 180.343,109.099 157.807,131.616 C 134.344,155.072 119.836,187.489 119.836,223.276 C 119.836,259.068 134.344,291.479 157.807,314.941 C 180.343,337.477 211.129,351.74 245.255,352.84 L 245.255,356.867 C 210.021,355.765 178.219,341.04 154.955,317.783 C 130.771,293.604 115.811,260.181 115.811,223.276 C 115.811,186.376 130.771,152.96 154.955,128.776 C 178.219,105.505 210.021,90.7867 245.255,89.6973 Z M 379.085,223.276 C 379.085,187.489 364.577,155.072 341.127,131.616 C 321.275,111.781 295.027,98.344 265.727,94.6733 L 265.727,90.612 C 296.14,94.3133 323.387,108.201 343.973,128.776 C 368.152,152.96 383.112,186.376 383.112,223.276 Z "/>
			<path id="dp_path004" fill="#1485ee" fill-rule="evenodd" d="M 129.892,235.533 C 121.725,235.533 113.553,235.533 105.388,235.533 L 105.388,211.036 C 113.553,211.036 121.725,211.036 129.892,211.036 Z "/>
			<path id="dp_path005" fill="#1485ee" fill-rule="evenodd" d="M 267.743,344.681 L 267.743,365.152 L 267.743,367.168 L 265.727,367.168 L 245.255,367.168 L 243.245,367.168 L 243.245,365.152 L 243.245,344.681 L 243.245,342.665 L 245.255,342.665 L 265.727,342.665 L 267.743,342.665 Z M 263.717,363.143 L 263.717,346.691 L 247.271,346.691 L 247.271,363.143 Z "/>
			<path id="dp_path006" fill="#1485ee" fill-rule="evenodd" d="M 267.743,81.772 L 267.743,102.256 L 267.743,104.265 L 265.727,104.265 L 245.255,104.265 L 243.245,104.265 L 243.245,102.256 L 243.245,81.772 L 243.245,79.7627 L 245.255,79.7627 L 265.727,79.7627 L 267.743,79.7627 Z M 263.717,100.24 L 263.717,83.788 L 247.271,83.788 L 247.271,100.24 Z "/>
			<path id="dp_path007" fill="#dca854" fill-rule="evenodd" d="M 293.215,229.317 L 313.693,254.489 C 334.027,259.225 337.829,259.537 355.761,270.255 L 377.172,269.66 L 365.341,221.952 L 294.653,208.275 Z "/>
			<path id="dp_path008" fill="#fbd696" fill-rule="evenodd" d="M 388.22,240.944 C 380.471,205.524 377.593,200.867 333.503,197.737 C 294.9,195.005 261.996,192.297 258.716,203.7 C 255.9,213.497 310.66,217.053 331.331,221.308 C 359.841,227.193 353.247,230.515 356.285,243.567 C 360.588,261.957 353.132,268.221 341.019,269.581 C 329.603,270.833 316.033,256.855 305.292,244.229 C 288.473,224.468 269.577,232.133 285.229,255.433 C 292.728,266.596 300.147,277.145 307.531,287.911 C 328.321,318.209 335.284,322.313 364.048,345.475 L 368.032,418.949 L 409.048,418.949 L 431.139,403.701 C 424.128,374.137 415.336,351.74 407.82,324.679 C 400.768,299.241 395.032,269.04 388.22,240.944 Z "/>
			<path id="dp_path009" fill="#1485ee" fill-rule="evenodd" d="M 415.101,333.945 L 347.253,358.813 L 362.663,420.311 L 439.025,420.311 Z "/>
			<path id="dp_path010" fill="#e0f4f0" fill-rule="evenodd" d="M 126.221,222.783 C 124.175,222.019 127.063,219.78 127.821,219.4 C 131.721,217.439 135.313,219.677 138.328,218.035 C 144.857,214.472 151.784,206.829 155.129,198.832 C 162.947,202.581 175.223,209.111 183.033,211.536 C 187.992,213.071 194.172,212.601 199.311,213.107 L 199.076,222.945 L 166.671,225.479 L 160.227,222.909 C 160.215,220.068 158.553,217.716 156.489,217.745 C 154.828,217.752 153.42,219.208 152.921,221.296 Z "/>
			<path id="dp_path011" fill="#c9ecec" fill-rule="evenodd" d="M 126.221,223.113 C 124.175,223.865 127.063,226.111 127.821,226.501 C 131.721,228.451 135.313,226.212 138.328,227.855 C 144.857,231.412 151.784,239.06 155.129,247.064 C 162.947,243.315 175.223,236.78 183.033,234.36 C 187.992,232.832 194.172,233.283 199.311,232.796 L 199.076,222.945 L 160.227,222.975 C 160.215,225.833 158.553,228.187 156.489,228.163 C 154.828,228.144 153.42,226.664 152.921,224.593 Z "/>
			<path id="dp_path012" fill="#1485ee" fill-rule="evenodd" d="M 407.923,217.855 L 407.923,228.041 C 407.923,236.117 401.315,242.737 393.227,242.737 L 198.739,242.737 C 190.663,242.737 184.049,236.117 184.049,228.041 L 184.049,217.855 C 184.049,209.767 190.663,203.159 198.739,203.159 L 393.227,203.159 C 401.315,203.159 407.923,209.767 407.923,217.855 Z "/>
			<path id="dp_path013" fill="#fbd696" fill-rule="evenodd" d="M 355.437,282.013 C 353.089,282.272 336.096,270.261 332.643,266.993 C 322.323,257.227 303.535,239.764 295.008,229.739 C 278.189,209.977 259.293,217.632 274.945,240.944 C 282.444,252.095 300.147,277.145 307.531,287.911 Z "/>
		</g>
	</g>
</svg>