<?xml version="1.0" encoding="UTF-8" standalone="no"?>
<!-- Created with Serif DrawPlus 12,0,4,27 (May 24, 08:37:51) (http://www.serif.com) -->
<svg version="1.1" xmlns="http://www.w3.org/2000/svg" xmlns:xlink="http://www.w3.org/1999/xlink" xmlns:i="http://ns.adobe.com/AdobeIllustrator/10.0/" width="793.701" height="732.721">
	<g id="dp_group001">
		<path id="dp_path002" fill="#4574b5" fill-rule="evenodd" d="M 143.915,92.3667 L 355.377,92.3667 L 355.377,137.088 L 143.915,137.088 Z "/>
		<path id="dp_path003" fill="#4574b5" fill-rule="evenodd" d="M 640.427,142.689 C 647.772,142.689 654.961,139.708 660.183,134.495 C 665.396,129.277 668.377,122.084 668.377,114.739 C 668.377,107.364 665.396,100.168 660.183,94.9493 C 654.965,89.7693 647.772,86.788 640.427,86.788 C 633.048,86.788 625.859,89.7733 620.639,94.9493 C 615.459,100.164 612.476,107.36 612.476,114.739 C 612.476,122.084 615.461,129.273 620.639,134.495 C 625.859,139.708 633.048,142.689 640.427,142.689 Z "/>
		<path id="dp_path004" fill="#4574b5" fill-rule="evenodd" d="M 539.805,142.689 C 547.151,142.689 554.34,139.708 559.561,134.495 C 564.775,129.277 567.756,122.084 567.756,114.739 C 567.756,107.364 564.775,100.168 559.561,94.9493 C 554.344,89.7693 547.151,86.788 539.805,86.788 C 532.431,86.788 525.237,89.7733 520.016,94.9493 C 514.836,100.164 511.855,107.36 511.855,114.739 C 511.855,122.084 514.84,129.273 520.016,134.495 C 525.237,139.708 532.427,142.689 539.805,142.689 Z "/>
		<path id="dp_path005" fill="#4574b5" fill-rule="evenodd" d="M 439.147,142.689 C 446.525,142.689 453.719,139.708 458.939,134.495 C 464.153,129.277 467.135,122.084 467.135,114.739 C 467.135,107.397 464.153,100.168 458.939,94.9493 C 453.721,89.7693 446.529,86.788 439.147,86.788 C 431.805,86.788 424.616,89.7733 419.395,94.9493 C 414.215,100.164 411.233,107.36 411.233,114.739 C 411.233,122.084 414.219,129.273 419.395,134.495 C 424.616,139.708 431.805,142.689 439.147,142.689 Z "/>
		<path id="dp_path006" fill="#4574b5" fill-rule="evenodd" d="M 0,0 L 0,590.199 L 184.405,590.199 L 184.405,732.72 L 451.847,590.199 L 793.7,590.199 L 793.7,0 Z M 737.799,55.9013 L 737.799,173.555 L 55.9013,173.555 L 55.9013,55.9013 Z M 437.88,534.297 L 240.307,639.589 L 240.307,534.297 L 55.9013,534.297 L 55.9013,229.455 L 737.799,229.455 L 737.799,534.297 Z "/>
		<path id="dp_path007" fill="#4574b5" fill-rule="evenodd" d="M 158.945,306.385 L 634.752,306.385 L 634.752,351.107 L 158.945,351.107 Z "/>
		<path id="dp_path008" fill="#4574b5" fill-rule="evenodd" d="M 158.945,405.189 L 634.752,405.189 L 634.752,449.911 L 158.945,449.911 Z "/>
	</g>
</svg>