<?xml version="1.0" encoding="UTF-8" standalone="no"?>
<!-- Created with Serif DrawPlus 12,0,4,27 (May 24, 08:37:51) (http://www.serif.com) -->
<svg version="1.1" xmlns="http://www.w3.org/2000/svg" xmlns:xlink="http://www.w3.org/1999/xlink" xmlns:i="http://ns.adobe.com/AdobeIllustrator/10.0/" width="793.701" height="732.721">
	<g id="dp_group001" transform="matrix(1,0,0,1,0,-194.897)">
		<path id="dp_path002" fill="#4574b5" fill-rule="evenodd" d="M 143.915,287.264 L 355.377,287.264 L 355.377,331.985 L 143.915,331.985 Z "/>
		<path id="dp_path003" fill="#4574b5" fill-rule="evenodd" d="M 640.427,337.587 C 647.772,337.587 654.961,334.605 660.183,329.392 C 665.396,324.175 668.377,316.981 668.377,309.636 C 668.377,302.261 665.396,295.065 660.183,289.847 C 654.965,284.667 647.772,281.685 640.427,281.685 C 633.048,281.685 625.859,284.671 620.639,289.847 C 615.459,295.061 612.476,302.257 612.476,309.636 C 612.476,316.981 615.461,324.171 620.639,329.392 C 625.859,334.605 633.048,337.587 640.427,337.587 Z "/>
		<path id="dp_path004" fill="#4574b5" fill-rule="evenodd" d="M 539.805,337.587 C 547.151,337.587 554.34,334.605 559.561,329.392 C 564.775,324.175 567.756,316.981 567.756,309.636 C 567.756,302.261 564.775,295.065 559.561,289.847 C 554.344,284.667 547.151,281.685 539.805,281.685 C 532.431,281.685 525.237,284.671 520.016,289.847 C 514.836,295.061 511.855,302.257 511.855,309.636 C 511.855,316.981 514.84,324.171 520.016,329.392 C 525.237,334.605 532.427,337.587 539.805,337.587 Z "/>
		<path id="dp_path005" fill="#4574b5" fill-rule="evenodd" d="M 439.147,337.587 C 446.525,337.587 453.719,334.605 458.939,329.392 C 464.153,324.175 467.135,316.981 467.135,309.636 C 467.135,302.295 464.153,295.065 458.939,289.847 C 453.721,284.667 446.529,281.685 439.147,281.685 C 431.805,281.685 424.616,284.671 419.395,289.847 C 414.215,295.061 411.233,302.257 411.233,309.636 C 411.233,316.981 414.219,324.171 419.395,329.392 C 424.616,334.605 431.805,337.587 439.147,337.587 Z "/>
		<path id="dp_path006" fill="#4574b5" fill-rule="evenodd" d="M 0,194.897 L 0,785.096 L 184.405,785.096 L 184.405,927.617 L 451.847,785.096 L 793.7,785.096 L 793.7,194.897 Z M 737.799,250.799 L 737.799,368.452 L 55.9013,368.452 L 55.9013,250.799 Z M 437.88,729.195 L 240.307,834.487 L 240.307,729.195 L 55.9013,729.195 L 55.9013,424.352 L 737.799,424.352 L 737.799,729.195 Z "/>
		<path id="dp_path007" fill="#4574b5" fill-rule="evenodd" d="M 158.945,501.283 L 634.752,501.283 L 634.752,546.004 L 158.945,546.004 Z "/>
		<path id="dp_path008" fill="#4574b5" fill-rule="evenodd" d="M 158.945,600.087 L 634.752,600.087 L 634.752,644.808 L 158.945,644.808 Z "/>
	</g>
</svg>